<svg version="1.0" xmlns="http://www.w3.org/2000/svg" viewBox="0 0 2320 172"><g fill="#f9f9f9" stroke-width="0"><path d="M0 86v86h2320V0H0v86zm1525.2-2.9c7.2 19.4 10.4 27 12.3 28.6 1.4 1.2 2.5 2.5 2.5 2.8 0 .3-4.9.5-11 .5-10.2 0-13.8-1-9.1-2.5 3.1-.9 3.2-2.9.5-10.9l-2.6-7.6h-16.5l-1.1 3.9c-.7 2.1-1.2 5.7-1.2 7.9 0 3.2.5 4.4 2.7 6 1.6 1.1 2.5 2.3 2.1 2.7-.9.9-41.8-.6-41.8-1.6 0-.5 1.2-1.2 2.8-1.5 1.5-.4 3-1.2 3.4-1.8 1.2-1.7.9-45.5-.2-47.7-.6-1.1-2.1-1.9-3.6-1.9-1.6 0-2.4-.5-2.2-1.3.7-1.9 24.8-2.3 24.8-.4 0 .8-1.3 1.7-3 2l-3 .6V110l2.7 1.1c7.1 2.7 10-1.4 18.3-25.7 4.6-13.4 5.8-17.9 5-19-.9-1-.4-2.1 2.4-4.9 2-2 3.6-4 3.6-4.6 0-.6.6-.9 1.2-.7.7.3 5.7 12.3 11 26.9zM826.9 62c2.8 13.3 2.2 20.5-1 12.8-1.9-4.5-6.6-9.6-11-11.9-2.1-1-4-1.9-4.3-1.9-.7 0-.6 41 .2 46 .6 3.9 1.1 4.5 4 5.4 6.3 1.8 3 2.6-10.3 2.6-8.2 0-13.5-.4-13.5-1 0-.5 1.2-1.3 2.8-1.6 1.5-.4 3-1.2 3.4-1.8.4-.6.8-12 .8-25.4V61l-3.8 1.9c-4.5 2.3-10 8.2-11.4 12.3-1.2 3.4-2.8 3.7-2.8.5 0-2.1 1.4-11 2.5-16.2.4-1.9 1.2-2 21.9-2h21.5l1 4.5zM977 58c10.4.1 19.4-.1 19.9-.4 1.2-.8 1.7.7 3.1 9.5 1.7 10.5 1.2 12.5-1.9 7.4-3.4-5.7-7-9.4-11.3-11.6L983 61v24.4c0 26.1.3 27.6 5.1 27.6 1 0 1.9.4 1.9 1s-5.2 1-13.5 1c-12.9 0-17.2-1-10.4-2.5 1.9-.4 3.4-1.6 4-3.2 1.2-3.1 1.2-48.3 0-48.3-2.7 0-10.9 7-13.6 11.7-5 8.7-5.3 7.6-2.4-9.5.8-4.7 1.5-6.2 2.5-5.8.8.3 9.9.6 20.4.6zm197.3.7c4.2 1.5 4.9 1.5 5.7.3 1.7-2.8 2.8.4 3.4 10.4.8 10.8 0 11.8-3 3.5-2.6-7-6.9-11.8-11.8-12.9-7.5-1.7-12 .6-13.2 6.7-.9 4.5 2.5 7.4 12.4 10.7 14.5 4.9 18.7 9.1 18.7 19.1 0 5.5-.5 7-3 10.6-5.8 8.2-15.9 10.8-26.6 6.9-5.8-2.1-6.2-2.1-8-.4-1.9 1.7-1.9 1.5-1.9-10.9 0-7 .4-12.7.8-12.7.5 0 1.4 2.6 2.1 5.7 1.5 6.8 5 13.4 8.3 15.5 8.6 5.6 19.8 1 19.8-8.1 0-6-3.3-8.7-16.5-13.2-11.2-3.9-15.8-10.2-14.1-19.4.8-4.2 5.9-10.3 10.1-12.1 4.2-1.8 11.1-1.7 16.8.3zm73.7 1.9c6.1 3.2 12.1 10.3 13.9 16.4.6 2 1.1 6.8 1.1 10.6 0 8.5-2.9 15.3-8.8 20.6-6.2 5.6-9.8 7.1-18.5 7.6-7.1.4-8.2.2-14.2-2.7-7.4-3.7-11.7-8.3-14.5-15.9-6.1-16.1 2.6-33.9 19-39.3 1.4-.5 5.7-.7 9.6-.5 5.5.2 8.2.9 12.4 3.2zm104.3-2.1c-.1.5-1.1 1.1-2.2 1.3-3.9.6-4.1 2.1-3.9 26.7l.3 23.8 3.3 1.1c1.8.6 3 1.5 2.6 1.9-1.1 1-25.4.9-25.4-.2 0-.5 1.4-1.2 3-1.6 1.9-.4 3.2-1.4 3.5-2.8.3-1.2.4-12.3.3-24.6-.3-23.7-.2-23-5.1-24.5-1-.3-1.5-1.1-1.2-1.7.9-1.4 25.1-.8 24.8.6zm20.4-.6c.5.3 6.5 8 13.3 17.1 6.7 9.1 12.9 17.2 13.7 18 1.3 1.3 1.4-.3 1.1-13-.4-15.9-1.1-18.2-5.8-19.8-1.6-.6-3-1.6-3-2.2 0-.8 6.7-1.1 24.3-.8 23 .3 24.5.4 29.5 2.7 11 5 16.8 15.4 16 29-.5 8.6-2.7 13.8-8 18.8-5.9 5.7-8.8 6.3-28.8 6.3-17.5 0-21.2-.7-15-2.9l3-1V86.3c0-24.6-.3-26.3-4-26.3-.9 0-2.5.9-3.6 2.1-1.7 1.9-1.9 4.2-2.2 28-.2 14.2-.7 25.9-1.1 25.9-.4 0-7.7-9.3-16.1-20.8-8.5-11.4-16.4-22-17.7-23.5l-2.3-2.9V87c0 20.4.8 23.6 6 24.7 6.2 1.2 2.6 2.3-7.5 2.3-10.7 0-13.1-.8-7.3-2.5 5.3-1.6 5.8-3.7 5.8-26.6 0-22.6 0-22.4-6.3-24.8-1.6-.6-2.6-1.5-2.2-2 .6-1.1 16.7-1.2 18.2-.2zm-519.2 1.3c.4.4-.9 1.4-2.9 2.2l-3.6 1.5V84h20v-9.6c0-10.7-.9-13.4-4.5-13.4-1.4 0-2.5-.4-2.5-.9 0-1.1 14.6-2.4 20.3-1.9 4 .3 5.1 2.1 1.7 2.6-1.2.2-2.5 1.5-3.1 2.8-1 2.7-1.3 42.4-.3 46 .4 1.4 1.6 2.4 3.5 2.8 1.6.3 2.9 1 2.9 1.6 0 .6-4.6 1-12.5 1-12.4 0-15.2-.8-9.5-2.9l3-1V87h-19v24.2l3 1.1c1.7.6 3 1.5 3 1.9 0 .4-5.6.8-12.5.8-11.9 0-15.7-1-9.8-2.5 1.5-.3 3.1-1.2 3.5-1.8 1.2-1.9 1-45.5-.2-47.8-.6-1-1.9-1.9-3-1.9-1.8 0-3.4-1.3-2.5-2.1.7-.7 24.3-.4 25 .3zm74.5 3c.6 2.4 1.5 5.9 2.1 7.8 1.2 4.5 1.1 7-.1 7-.5 0-1-.6-1-1.3 0-.8-1.4-3.4-3.1-6-3.6-5.5-9.5-8.7-16.2-8.7H905v11.5c0 12.4.2 12.7 5.4 10.4 2.5-1.2 5.6-6.3 5.6-9.3 0-.9.5-1.6 1-1.6.6 0 1 5.3 1 14 0 13.7-1.1 18.1-2.5 9.8-.9-4.9-4.4-8.8-8-8.8H905v12c0 11.2.1 12 2.1 13.1 2.8 1.5 9.2.4 14.1-2.3 4-2.3 9.2-9.3 10.3-14.1.4-1.5 1.1-2.7 1.6-2.7 1.3 0 1.1 3.2-.8 13.2l-1.7 8.8h-22.3c-13.9 0-22.3-.4-22.3-1 0-.5 1.2-1.3 2.8-1.6 1.5-.4 3-1.2 3.4-1.8 1.1-1.6 1-44.1-.1-47-.6-1.4-1.9-2.6-3.2-2.8-1.2-.2-2.4-.9-2.7-1.6-.3-.9 4.2-1.2 20.2-1.2h20.5l1.1 4.2zm98-2.8c0 .7-1.3 1.6-3 1.9l-3 .6v49.2l3 1c5.7 2.1 2.9 2.9-9.5 2.9-11.9 0-15.7-1-9.8-2.5 1.5-.3 3.1-1.2 3.5-1.8.4-.7.8-11.4.8-23.8 0-23.5-.3-25.3-4.4-26.1-1.1-.1-2.1-.9-2.4-1.6-.3-.9 2.6-1.2 12.2-1.2 10 0 12.6.3 12.6 1.4zm27.9 17.8c4.1 10.4 7.8 18.8 8.1 18.8.6 0 2.3-4.2 12-29.8l3.2-8.2h9c6.7 0 8.9.3 8.6 1.2-.3.7-1.3 1.5-2.4 1.6-4.1.7-4.4 2.6-4.4 25.7 0 23.1.3 25 4.4 25.7 1.1.1 2.1.9 2.4 1.5.3 1-2.6 1.3-12.3 1.3-9.7 0-12.6-.3-12.3-1.2.3-.7 1.4-1.4 2.6-1.6 1.3-.2 2.4-1.3 2.7-2.5.3-1.2.4-11.1.3-22.1l-.3-19.8-8.9 23.6c-5 13-9.4 23.6-9.8 23.6-.5 0-1.1-.8-1.5-1.8-.3-.9-4.4-11.1-8.9-22.7l-8.3-21-.1 18.5c0 20.1.5 22.1 5.6 24 5 1.9 2.4 3-7.1 3-9.7 0-11.6-.9-6.8-3.2 4.9-2.4 5.3-4.4 5-27.8l-.2-21.5-3.5-1.1c-1.9-.6-3.6-1.7-3.8-2.3-.3-.9 2.3-1.1 9.4-.9l9.8.3 7.5 18.7zm86-10.1c1.2 5.1 1.8 9.5 1.5 9.8-.4.3-.9 0-1.1-.7-.3-.7-1.9-3.4-3.6-6-3.9-5.8-10.1-9.2-16.9-9.2h-4.8v23h2.4c3.5 0 7.6-3.9 8.5-7.9.3-1.9 1.2-3.6 1.9-3.9.9-.3 1.2 3.1 1.2 13.8 0 10.9-.3 14.1-1.2 13.8-.7-.3-1.6-2.1-1.9-4.2-.8-4.7-4.4-8.6-8.1-8.6h-2.8v11.4c0 10.7.1 11.6 2.2 13 2.8 2 5.3 2 11.1 0 6.4-2.2 11.4-8.1 14.2-16.8.4-1.4.9-1.6 1.6-.9.8.8.5 4-.9 10.7-1.1 5.3-2.2 9.9-2.4 10.2-.3.2-10.6.3-22.9.2-22-.3-22.3-.3-18.6-2l3.7-1.7-.2-24.2c-.3-25.7-.1-24.8-5.1-26.3-1-.3-1.5-1-1.2-1.6.4-.6 8.4-1 21-1h20.3l2.1 9.1zm166.9-.4c1.2 4.9 2.2 9.1 2.2 9.5 0 2-1.8.3-4.3-4.2-4.2-7.4-8.6-10.3-16.3-10.8l-6.4-.4V84h2.6c3.6 0 8.4-5 8.4-8.9 0-2.1.5-3.1 1.5-3.1 1.3 0 1.5 1.9 1.3 13.5-.2 7.9-.7 13.6-1.3 13.8-.5.1-1.1-.9-1.3-2.3-.7-6.3-3.4-9.4-8.7-10.2-1.9-.3-2 .4-2.3 10.2-.4 13.2 0 14.6 3.8 15.3 1.6.4 3 1.1 3 1.7 0 1.3-24.7 1.4-25.5 0-.4-.6.7-1.3 2.4-1.6 2.1-.4 3.3-1.4 3.6-2.8.3-1.1.4-12.2.3-24.6l-.3-22.5-3.3-1.5c-1.8-.9-3-1.9-2.6-2.3.4-.4 9.8-.7 20.9-.7h20.1l2.2 8.7z"/><path d="M1506.5 81.2c-1.5 4.6-3 8.9-3.3 9.5-.3 1 1.4 1.3 6.7 1.3 3.9 0 7.1-.2 7.1-.4 0-.9-6.3-17.2-7-17.9-.3-.4-1.9 3-3.5 7.5zM1228 61.3c-6.9 3.5-11 18.1-9.1 32.3 1.9 13 7.3 20 15.5 19.8 7.8-.2 12.6-5.9 14.7-17.8 2.2-12.9-.2-25.6-6.2-31.8-3.1-3.3-4.2-3.8-8-3.8-2.4 0-5.5.6-6.9 1.3zm197 21.1c0 12.4.4 23.6.9 24.9.6 1.6 2.3 2.9 4.5 3.7 12.9 4.2 22.1-11.5 18.6-31.8-2.1-12.9-8.3-19.2-18.9-19.2h-5.1v22.4z"/></g><path d="M1339.7 57.7c1.8.2 5 .2 7 0 2.1-.2.7-.4-3.2-.4-3.8 0-5.5.2-3.8.4zm17.1 0c1.2.2 3 .2 4 0 .9-.3-.1-.5-2.3-.4-2.2 0-3 .2-1.7.4zm7 0c.7.3 1.6.2 1.9-.1.4-.3-.2-.6-1.3-.5-1.1 0-1.4.3-.6.6zm4.5 0c.9.2 2.3.2 3 0 .6-.3-.1-.5-1.8-.5-1.6 0-2.2.2-1.2.5zm53.5 0c.6.2 1.8.2 2.5 0 .6-.3.1-.5-1.3-.5-1.4 0-1.9.2-1.2.5zm-633 1c.7.3 1.6.2 1.9-.1.4-.3-.2-.6-1.3-.5-1.1 0-1.4.3-.6.6zm4 0c.7.3 1.6.2 1.9-.1.4-.3-.2-.6-1.3-.5-1.1 0-1.4.3-.6.6zm8 0c1.7.2 4.7.2 6.5 0 1.7-.2.3-.4-3.3-.4-3.6 0-5 .2-3.2.4zm12 0c1.2.2 3 .2 4 0 .9-.3-.1-.5-2.3-.4-2.2 0-3 .2-1.7.4zm7 0c.7.3 1.6.2 1.9-.1.4-.3-.2-.6-1.3-.5-1.1 0-1.4.3-.6.6zm12 0c.7.3 1.6.2 1.9-.1.4-.3-.2-.6-1.3-.5-1.1 0-1.4.3-.6.6zm14.5 0c.9.2 2.3.2 3 0 .6-.3-.1-.5-1.8-.5-1.6 0-2.2.2-1.2.5zm4.7-.3c0 .2.7.7 1.6 1 .8.3 1.2.2.9-.4-.6-1-2.5-1.4-2.5-.6zm117.3.3c4.8.2 12.5.2 17 0 4.5-.1.6-.3-8.8-.3-9.3 0-13 .2-8.2.3zm58.7.2c0 1 1.9 2.5 2.5 2 .1-.2-.3-1-1.1-1.7s-1.4-.8-1.4-.3zm50.8-.2c.7.3 1.6.2 1.9-.1.4-.3-.2-.6-1.3-.5-1.1 0-1.4.3-.6.6zm18.7.3c-.3.6.1.7.9.4 1.8-.7 2.1-1.4.7-1.4-.6 0-1.3.4-1.6 1zm136.3.7c.6.2 1.8.2 2.5 0 .6-.3.1-.5-1.3-.5-1.4 0-1.9.2-1.2.5zM798.4 84.5c0 13.2.2 18.5.3 11.7.2-6.8.2-17.6 0-24-.1-6.4-.3-.9-.3 12.3zm106-12c0 6.6.1 9.2.3 5.7.2-3.4.2-8.8 0-12-.2-3.1-.3-.3-.3 6.3zm78 12c0 13.2.2 18.5.3 11.7.2-6.8.2-17.6 0-24-.1-6.4-.3-.9-.3 12.3zM787.9 66.7c-1.3 1.6-1.2 1.7.4.4 1.6-1.3 2.1-2.1 1.3-2.1-.2 0-1 .8-1.7 1.7zm249.5 21.8c0 6 .1 8.4.3 5.2.2-3.2.2-8.1 0-11-.2-2.9-.3-.3-.3 5.8zm180.7-7.9c0 1.1.3 1.4.6.6.3-.7.2-1.6-.1-1.9-.3-.4-.6.2-.5 1.3zm-68.1 2.8c0 .2.8 1 1.8 1.7 1.5 1.3 1.6 1.2.3-.4s-2.1-2.1-2.1-1.3zm-292.8 3.3 8.7.4.4 11.7.3 11.7v-12l-.1-12-9-.1h-9l8.7.3zm47.2 10.8c0 6 .1 8.4.3 5.2.2-3.2.2-8.1 0-11-.2-2.9-.3-.3-.3 5.8zm313.7-5.9c0 1.1.3 1.4.6.6.3-.7.2-1.6-.1-1.9-.3-.4-.6.2-.5 1.3zm-75.6 2.5c-.4.6-.5 1.2-.2 1.5.2.3.7-.2 1-1.1.7-1.7.1-2-.8-.4zM810.2 106c0 1.4.2 1.9.5 1.2.2-.6.2-1.8 0-2.5-.3-.6-.5-.1-.5 1.3zm370.2 4.2-1.9 2.3 2.3-1.9c2.1-1.8 2.7-2.6 1.9-2.6-.2 0-1.2 1-2.3 2.2zm-141.4-.8c0 .2.8 1 1.8 1.7 1.5 1.3 1.6 1.2.3-.4s-2.1-2.1-2.1-1.3zm16.7 4.7c.7.7 1.5 1 1.8.7.3-.3-.2-.9-1.2-1.2-1.4-.6-1.5-.5-.6.5zm438.1.6c1.2.2 3 .2 4 0 .9-.3-.1-.5-2.3-.4-2.2 0-3 .2-1.7.4z" fill="#CCC"/><path d="M1179 59.6c-1.7.9-2 1.4-.9 1.4.9 0 2.2-.7 2.9-1.5 1.5-1.8 1.3-1.8-2 .1zm286-.6c0 .5.5 1 1.1 1 .5 0 .7-.5.4-1-.3-.6-.8-1-1.1-1-.2 0-.4.4-.4 1zm-56.2.7c.7.3 1.6.2 1.9-.1.4-.3-.2-.6-1.3-.5-1.1 0-1.4.3-.6.6zm34.9.4c.7.7 1.5 1 1.8.7.3-.3-.2-.9-1.2-1.2-1.4-.6-1.5-.5-.6.5zm-578.2.8c-.3.5-.2 1.2.3 1.5.5.3.9-.1.9-.9 0-1.7-.3-1.9-1.2-.6zm531.5-.5c0 .2.8 1 1.8 1.7 1.5 1.3 1.6 1.2.3-.4s-2.1-2.1-2.1-1.3zm112.4 1.8-1.9 2.3 2.3-1.9c2.1-1.8 2.7-2.6 1.9-2.6-.2 0-1.2 1-2.3 2.2zm-631.8 0c.3.5 1 .6 1.5.3 1.3-.9 1.1-1.2-.6-1.2-.8 0-1.2.4-.9.9zm403.8 9.3c0 6 .1 8.4.3 5.2.2-3.2.2-8.1 0-11-.2-2.9-.3-.3-.3 5.8zm92.6-10.1c0 .2.8 1 1.8 1.7 1.5 1.3 1.6 1.2.3-.4s-2.1-2.1-2.1-1.3zm-455 1c0 .2.7.7 1.6 1 .8.3 1.2.2.9-.4-.6-1-2.5-1.4-2.5-.6zm297 1.1c-.7.9-1.1 1.7-.9 2 .3.2 1-.5 1.7-1.5 1.4-2.4 1-2.6-.8-.5zm118.4 22c0 12.6.2 17.7.3 11.2.2-6.5.2-16.8 0-23-.1-6.2-.3-.9-.3 11.8zm-64 1.5c0 12.9.2 18.2.3 11.7.2-6.4.2-17 0-23.5-.1-6.4-.3-1.1-.3 11.8zm183.1-21c1 1.1 2 2 2.3 2 .3 0-.3-.9-1.3-2s-2-2-2.3-2c-.3 0 .3.9 1.3 2zm-378.2.2c-1.5 2-2.5 3.8-2 3.8.3 0 1.2-1.1 2.1-2.5 1.7-2.6 1.6-3.5-.1-1.3zM1008.4 87c0 11.8.2 16.7.3 10.7.2-5.9.2-15.5 0-21.5-.1-5.9-.3-1-.3 10.8zm394-6.5c0 6.6.1 9.2.3 5.7.2-3.4.2-8.8 0-12-.2-3.1-.3-.3-.3 6.3zm-57 3.5c0 6.9.1 9.7.3 6.2.2-3.4.2-9 0-12.5-.2-3.4-.3-.6-.3 6.3zM916.5 74c-.3.5-.1 1 .4 1 .6 0 1.1-.5 1.1-1 0-.6-.2-1-.4-1-.3 0-.8.4-1.1 1zm468.5 2c0 .5.5 1 1.1 1 .5 0 .7-.5.4-1-.3-.6-.8-1-1.1-1-.2 0-.4.4-.4 1zm-471.5 4.9c-.3.5-.2 1.2.3 1.5.5.3.9-.1.9-.9 0-1.7-.3-1.9-1.2-.6zm367.8 15.8v13.8l.6-13c.3-7.2.3-13.4 0-13.8-.3-.4-.6 5.4-.6 13zm-100.7-11.9c-.3.5.1.9.9.9s1.2-.4.9-.9c-.3-.4-.7-.8-.9-.8-.2 0-.6.4-.9.8zm24.6 1.2c0 1.4.2 1.9.5 1.2.2-.6.2-1.8 0-2.5-.3-.6-.5-.1-.5 1.3zm45.1 1.5c0 2.2.2 3 .4 1.7.2-1.2.2-3 0-4-.3-.9-.5.1-.4 2.3zm210.9.5c0 1.4.2 1.9.5 1.2.2-.6.2-1.8 0-2.5-.3-.6-.5-.1-.5 1.3zm-36.9 8c0 4.7.2 6.6.4 4.2.2-2.3.2-6.1 0-8.5-.2-2.3-.4-.4-.4 4.3zm-277.2-3.4c0 1.1.3 1.4.6.6.3-.7.2-1.6-.1-1.9-.3-.4-.6.2-.5 1.3zM1397 92c0 .5.5 1 1.1 1 .5 0 .7-.5.4-1-.3-.6-.8-1-1.1-1-.2 0-.4.4-.4 1zm5.4 11.5c0 6 .1 8.4.3 5.2.2-3.2.2-8.1 0-11-.2-2.9-.3-.3-.3 5.8zm-255.1-.5c0 4.7.2 6.6.4 4.2.2-2.3.2-6.1 0-8.5-.2-2.3-.4-.4-.4 4.3zm69.7-6.9c0 .5.5.7 1 .4.6-.3 1-.8 1-1.1 0-.2-.4-.4-1-.4-.5 0-1 .5-1 1.1zm174.5 5.9c1 1.1 2 2 2.2 2 .2 0-.2-.9-.9-2s-1.7-2-2.2-2c-.5 0-.1.9.9 2zm-236 8c1 1.1 2 2 2.3 2 .3 0-.3-.9-1.3-2s-2-2-2.3-2c-.3 0 .3.9 1.3 2zm335.4.7c-1.3 1.6-1.2 1.7.4.4.9-.7 1.7-1.5 1.7-1.7 0-.8-.8-.3-2.1 1.3zm-315.9 1.2c0 .7-.5.9-1.2.5-.7-.5-.8-.3-.3.5.5.9 1 1 1.8.2.6-.6.8-1.4.4-1.8-.4-.3-.7-.1-.7.6zm232 1.3c0 .5 2.8.7 6.3.7 6.7-.1 6-.6-1.5-1.1-2.7-.2-4.8 0-4.8.4zm-382.5.8c-.3.5-.1 1 .4 1 .6 0 1.1-.5 1.1-1 0-.6-.2-1-.4-1-.3 0-.8.4-1.1 1zm311.8-.3c2.6.2 6.7.2 9 0s.2-.3-4.8-.3c-4.9 0-6.8.1-4.2.3zm29 0c.9.2 2.3.2 3 0 .6-.3-.1-.5-1.8-.5-1.6 0-2.2.2-1.2.5zm60.5 0c2.9.2 7.4.2 10 0 2.6-.2.2-.3-5.3-.3s-7.6.1-4.7.3zm46.5 0c2 .2 5.4.2 7.5 0 2-.2.3-.4-3.8-.4s-5.8.2-3.7.4zm-675 1c3.2.2 8.1.2 11 0 2.9-.2.3-.3-5.8-.3-6 0-8.4.1-5.2.3zm41 0c.9.2 2.5.2 3.5 0 .9-.3.1-.5-1.8-.5-1.9 0-2.7.2-1.7.5zm31 0c2 .2 5.4.2 7.5 0 2-.2.3-.4-3.8-.4s-5.8.2-3.7.4zm20.5 0c1.8.2 4.5.2 6 0s0-.4-3.3-.4-4.5.2-2.7.4zm24.5 0c3.2.2 8.1.2 11 0 2.9-.2.3-.3-5.8-.3-6 0-8.4.1-5.2.3zm59.5 0c2.3.2 6.1.2 8.5 0 2.3-.2.4-.4-4.3-.4s-6.6.2-4.2.4zm36.9 0c1.8.2 5 .2 7 0 2.1-.2.7-.4-3.2-.4-3.8 0-5.5.2-3.8.4zm78.1 0c.7.3 1.6.2 1.9-.1.4-.3-.2-.6-1.3-.5-1.1 0-1.4.3-.6.6zm22 0c1.2.2 3 .2 4 0 .9-.3-.1-.5-2.3-.4-2.2 0-3 .2-1.7.4zm161.5 0c3.2.2 8.1.2 11 0 2.9-.2.3-.3-5.8-.3-6 0-8.4.1-5.2.3z" fill="#333"/><path d="M1327.5 57.9c-.6 1.1 1.3 2.6 2.2 1.7.4-.3 0-.7-.8-.8-.8 0 .9-.4 3.6-.8l5-.7-4.7-.1c-2.6-.1-4.9.2-5.3.7zm65.8-.2c.9.2 2.5.2 3.5 0 .9-.3.1-.5-1.8-.5-1.9 0-2.7.2-1.7.5zm11 0c3.1.2 8.3.2 11.5 0 3.1-.2.5-.3-5.8-.3s-8.9.1-5.7.3zm23 0c1.5.2 3.7.2 5 0 1.2-.2 0-.4-2.8-.4-2.7 0-3.8.2-2.2.4zm35.2.2c-.3.5 0 1.3.6 1.7.8.4.9.3.5-.4-.5-.8 2.3-1.2 9.6-1.5l10.3-.3-10.2-.2c-5.6-.1-10.4.2-10.8.7zm-589.2.8c2 .2 5.4.2 7.5 0 2-.2.3-.4-3.8-.4s-5.8.2-3.7.4zm26 0c4.8.2 12.5.2 17 0 4.5-.1.6-.3-8.8-.3-9.3 0-13 .2-8.2.3zm108.5 0c3.4.2 8.8.2 12 0 3.1-.2.3-.3-6.3-.3s-9.2.1-5.7.3zm24 0c.6.2 1.8.2 2.5 0 .6-.3.1-.5-1.3-.5-1.4 0-1.9.2-1.2.5zm5.2-.1c3.5.7 9.8.9 9.4.2-.3-.5-2.9-.7-5.7-.7-2.9.1-4.5.3-3.7.5zm46.3.1c2 .2 5.4.2 7.5 0 2-.2.3-.4-3.8-.4s-5.8.2-3.7.4zm28 0c4.8.2 12.6.2 17.5 0 4.8-.1.8-.3-8.8-.3-9.6 0-13.6.2-8.7.3zm168 0c4.8.2 12.5.2 17 0 4.5-.1.6-.3-8.8-.3-9.3 0-13 .2-8.2.3zm-371 2c.9.2 2.3.2 3 0 .6-.3-.1-.5-1.8-.5-1.6 0-2.2.2-1.2.5zm208 0c.9.2 2.3.2 3 0 .6-.3-.1-.5-1.8-.5-1.6 0-2.2.2-1.2.5zm168 0c.9.2 2.5.2 3.5 0 .9-.3.1-.5-1.8-.5-1.9 0-2.7.2-1.7.5zm-41.8 2.3c1 1.1 2 2 2.3 2 .3 0-.3-.9-1.3-2s-2-2-2.3-2c-.3 0 .3.9 1.3 2zm117.5-1.6c0 .2.8 1 1.8 1.7 1.5 1.3 1.6 1.2.3-.4s-2.1-2.1-2.1-1.3zm120.4 24.1c0 12.6.2 17.7.3 11.2.2-6.5.2-16.8 0-23-.1-6.2-.3-.9-.3 11.8zm-461-1c0 11.6.2 16.1.3 10.2.2-5.9.2-15.4 0-21-.1-5.6-.3-.8-.3 10.8zM1253 64.4c0 .2.8 1 1.8 1.7 1.5 1.3 1.6 1.2.3-.4s-2.1-2.1-2.1-1.3zM820.5 67c1 1.1 2 2 2.3 2 .3 0-.3-.9-1.3-2s-2-2-2.3-2c-.3 0 .3.9 1.3 2zm542.7.5c0 1.6.2 2.2.5 1.2.2-.9.2-2.3 0-3-.3-.6-.5.1-.5 1.8zm-325.9 2.6c-.2 2.3.3 2.5 1 .4.4-.8.3-1.6-.1-1.9-.4-.3-.9.4-.9 1.5zm326.1 17.4c0 9.3.2 13.3.3 8.8.2-4.5.2-12.2 0-17-.1-4.8-.3-1.2-.3 8.2zm-235.3-13.9c0 1.1.3 1.4.6.6.3-.7.2-1.6-.1-1.9-.3-.4-.6.2-.5 1.3zM1295 86.2c-.3 7.5-.1 13.4.3 12.9.4-.4.6-6.6.5-13.7l-.3-12.9-.5 13.7zm-443.2-1.5c2.3.2 6.1.2 8.5 0 2.3-.2.4-.4-4.3-.4s-6.6.2-4.2.4zm-5.4 2.6c-.2.7-.3 6-.2 11.8l.3 10.4.5-11.8c.3-6.4.4-11.7.2-11.7-.1 0-.5.6-.8 1.3zm59.4-.6c.7.3 1.6.2 1.9-.1.4-.3-.2-.6-1.3-.5-1.1 0-1.4.3-.6.6zm131.4 14.8c0 1.6.2 2.2.5 1.2.2-.9.2-2.3 0-3-.3-.6-.5.1-.5 1.8zm461 3.5c0 1.4.2 1.9.5 1.2.2-.6.2-1.8 0-2.5-.3-.6-.5-.1-.5 1.3zm-275.2 3.4c0 .2.8 1 1.8 1.7 1.5 1.3 1.6 1.2.3-.4s-2.1-2.1-2.1-1.3zm265.3 6.3c.9.2 2.3.2 3 0 .6-.3-.1-.5-1.8-.5-1.6 0-2.2.2-1.2.5zm12 0c.9.2 2.3.2 3 0 .6-.3-.1-.5-1.8-.5-1.6 0-2.2.2-1.2.5zm25 0c2.6.2 6.7.2 9 0s.2-.3-4.8-.3c-4.9 0-6.8.1-4.2.3z" fill="#999"/><path d="M1165.8 57.7c.7.3 1.6.2 1.9-.1.4-.3-.2-.6-1.3-.5-1.1 0-1.4.3-.6.6zm66.5 0c.9.2 2.5.2 3.5 0 .9-.3.1-.5-1.8-.5-1.9 0-2.7.2-1.7.5zm-344.5 1c.6.2 1.8.2 2.5 0 .6-.3.1-.5-1.3-.5-1.4 0-1.9.2-1.2.5zm539 1c1.2.2 3.2.2 4.5 0 1.2-.2.2-.4-2.3-.4s-3.5.2-2.2.4zM1182.2 64c0 1.4.2 1.9.5 1.2.2-.6.2-1.8 0-2.5-.3-.6-.5-.1-.5 1.3zm231.2 20c0 11.8.2 16.7.3 10.7.2-5.9.2-15.5 0-21.5-.1-5.9-.3-1-.3 10.8zM846.2 73.7c-.1 5.6.1 10.4.6 10.6.4.3.6-2.7.4-6.6-.5-12.9-.9-14.4-1-4zm189-6.7c0 1.9.2 2.7.5 1.7.2-.9.2-2.5 0-3.5-.3-.9-.5-.1-.5 1.8zm68.2 17.5c0 11.6.2 16.1.3 10.2.2-5.9.2-15.4 0-21-.1-5.6-.3-.8-.3 10.8zM1345.3 68c0 2.5.2 3.5.4 2.2.2-1.2.2-3.2 0-4.5-.2-1.2-.4-.2-.4 2.3zm-269 3.5c0 3.3.2 4.5.4 2.7.2-1.8.2-4.5 0-6s-.4 0-.4 3.3zm289.2-2.4c-.4.6-.4 1.3-.1 1.6.3.4.6.1.6-.6s.5-.9 1.2-.5.8.3.4-.4c-.9-1.5-1.3-1.5-2.1-.1zm-330.1 18.4c0 9.3.2 13.3.3 8.8.2-4.5.2-12.2 0-17-.1-4.8-.3-1.2-.3 8.2zm111.8-13c0 1.6.2 2.2.5 1.2.2-.9.2-2.3 0-3-.3-.6-.5.1-.5 1.8zM1365.4 88c0 9.1.2 12.8.3 8.2.2-4.5.2-11.9 0-16.5-.1-4.5-.3-.8-.3 8.3zm-237-2.5c0 6 .1 8.4.3 5.2.2-3.2.2-8.1 0-11-.2-2.9-.3-.3-.3 5.8zm-52 7.5c0 8.5.2 12 .3 7.7.2-4.2.2-11.2 0-15.5-.1-4.2-.3-.7-.3 7.8zm213.5-11.3c-1.3 1.6-1.2 1.7.4.4 1.6-1.3 2.1-2.1 1.3-2.1-.2 0-1 .8-1.7 1.7zm-425.1 3c.7.3 1.6.2 1.9-.1.4-.3-.2-.6-1.3-.5-1.1 0-1.4.3-.6.6zm251 0c.7.3 1.6.2 1.9-.1.4-.3-.2-.6-1.3-.5-1.1 0-1.4.3-.6.6zm89.3 4.9c0 1.1.3 1.4.6.6.3-.7.2-1.6-.1-1.9-.3-.4-.6.2-.5 1.3zm298.7 4.1c.6.2 1.8.2 2.5 0 .6-.3.1-.5-1.3-.5-1.4 0-1.9.2-1.2.5zm7 0c1.2.2 3.2.2 4.5 0 1.2-.2.2-.4-2.3-.4s-3.5.2-2.2.4zm-165.5 6.8c0 2.7.2 3.8.4 2.2.2-1.5.2-3.7 0-5-.2-1.2-.4 0-.4 2.8zm-242.1 7.5c0 1.4.2 1.9.5 1.2.2-.6.2-1.8 0-2.5-.3-.6-.5-.1-.5 1.3zm309.9-.4c0 1.1.3 1.4.6.6.3-.7.2-1.6-.1-1.9-.3-.4-.6.2-.5 1.3zm-265.2 6.1c-1.3 1.6-1.2 1.7.4.4.9-.7 1.7-1.5 1.7-1.7 0-.8-.8-.3-2.1 1.3zm-247.1 1c1.8.2 4.5.2 6 0s0-.4-3.3-.4-4.5.2-2.7.4zm133 0c1.8.2 4.5.2 6 0s0-.4-3.3-.4-4.5.2-2.7.4zm46 0c1.8.2 4.5.2 6 0s0-.4-3.3-.4-4.5.2-2.7.4zm84.5 1c.9.2 2.5.2 3.5 0 .9-.3.1-.5-1.8-.5-1.9 0-2.7.2-1.7.5z" fill="#666"/><g stroke-width="0"><path d="M1510.9 61.1c-2.7 2.9-3.5 4.6-3.2 6.6.5 3.3-9.4 32.4-13.2 38.9-1.4 2.4-3.4 4.8-4.4 5.4-2.3 1.2-7.6.3-9.1-1.5-.7-.8-.9-9.8-.8-25.5l.3-24.3 3.5-1.3c3.2-1.1 2.6-1.3-7.4-1.3-10.5-.1-10.8 0-9.3 1.7 1.5 1.6 1.7 5 1.7 26.6V111l-3 .7c-1.7.3-2.8.8-2.6 1.1.3.2 9.4.6 20.2.8 19.1.4 19.6.4 17.5-1.4-3.4-2.7-4-7.8-1.8-14l2-5.2 7.1-.2 7.1-.2-6.7-.3-6.6-.4 3.5-10.5c1.9-5.8 3.9-10.2 4.4-9.7 1.7 1.7 7.8 20.3 6.7 20.3-.7 0-.5.5.3 1.2 2 1.7 5.9 12.1 5.9 15.9 0 2.1-.6 3.2-2.2 3.9-1.6.6 1 .9 8.2.8 5.8 0 9.7-.2 8.8-.5-1.9-.5-5.6-7.6-8.6-16.8-2.7-8.1-13.2-36.6-14-38.1-.5-.9-1.8 0-4.3 2.7zM783.5 59c-.4.7-1.6 7.6-2.1 12.3-.3 2.3-.8 4.5-1.1 5-.3.6-.2.7.4.4.5-.3 1.8-2.3 2.8-4.5 2-4 8.1-9.3 12.8-11.1L799 60v24.8c0 13.6-.4 25.3-.9 26-.4.7-2.1 1.7-3.7 2.2-2.1.6-.2.9 7.6 1 5.8.2 11.5.4 12.7.5 1.2.1 2-.2 1.7-.6-.3-.5-1.4-.9-2.4-.9s-2.2-.5-2.5-1c-.4-.6-.9-.8-1.3-.6-.4.2-.6-11.2-.4-25.5.1-14.2.5-25.9.8-25.9.3 0 2.2.9 4.3 1.9 4.1 2.2 9.2 7.4 11.6 12.1.9 1.7 1.7 3 1.8 3 .2 0-.4-4.2-1.2-9.3l-1.5-9.2h-20.9c-11.5 0-21 .2-21.2.5zm172 1.5c-.8 3.7-2.5 13.9-2.5 14.9 0 .6 1.5-1.2 3.3-3.9 1.7-2.7 4.8-6 6.7-7.2 1.9-1.2 4-2.6 4.5-3 3.4-2.5 3.5-1.6 3.5 24.2v25.4l-2.9 1.5c-1.6.9-3.1 1.2-3.5.9-.3-.4-.6-.2-.6.3 0 .6 5.2 1 12.5.9 6.9 0 12.5-.3 12.5-.8 0-.4-1.1-.7-2.5-.7s-2.9-.8-3.5-1.9c-.6-1.2-1-11.5-1-26.5V60l3.8 1.5c4.7 2 9.8 6.9 12.3 11.7 1.1 2.1 2.2 3.8 2.5 3.8.5 0-.4-6.6-1.3-9-.6-1.6-.9-3.1-1.1-7l-.2-2.5h-21c-20.3 0-21.1.1-21.5 2zm201-.9c-6.8 3.4-10.6 14.5-7.1 21.1 1.9 3.9 6 6.3 15.8 9.8 8.5 3 12.4 5.9 13.4 9.9.8 3.2-.3 9.6-1.6 9.6-.6 0-1 .7-1 1.6 0 2.8 5.6-2.2 8-7.2 1.7-3.5 2.1-5.7 1.8-9.9-.5-5.5-3.1-10.1-5.1-8.8-.6.3-.7.1-.3-.6.8-1.2-8.2-5.8-16-8.1-6.8-2-9.8-5-9.7-9.6.2-5.3 3.8-8.4 9.9-8.4 2.5 0 5.8.7 7.3 1.5 1.6.8 3.2 1.1 3.6.7.3-.4.5-.3.4.3-.2.5.9 2.9 2.3 5.1 1.5 2.3 3.1 5.7 3.7 7.5.8 2.9.9 2.5.6-3.1-.2-3.6-.4-7.7-.4-9.3-.1-2.3-.3-2.6-1.9-1.6-1.3.8-2.7.7-5.6-.5-4.8-2-14.1-2-18.1 0zm70.1-.9c-.3.4-1.6.8-2.7 1-2.6.4-7.9 4.1-7.9 5.4 0 .6-.4.8-.9.5-1.1-.7-5.4 5.5-7.7 10.9-1.2 3-1.5 6-1.2 11.7.4 6.5 1 8.5 3.9 13.3 5.3 8.9 12.5 13.2 22.6 13.7 6.8.3 16.3-2.1 16.3-4.2 0-.6.4-.9.8-.6 1.3.8 7.7-6.3 10.3-11.4 1.7-3.4 2.2-6.3 2.3-12 0-6.5-.4-8.3-3.1-13.5-1.7-3.3-3.6-5.9-4.3-5.7-.6.1-.9-.2-.6-.7.8-1.2-4.9-5.3-10.2-7.4-4.2-1.7-16.2-2.4-17.6-1zm15.8 3.4c5.1 4.4 7.7 12.1 8 23.9.2 7-.2 10.7-1.5 14.3-1 2.6-1.7 4.9-1.6 5 .1.1-.5 1.1-1.3 2.2-7.4 10.1-21.2 8.2-25.4-3.5-.9-2.5-1.6-5.3-1.6-6.3s-.3-1.6-.7-1.4c-1.4.9-.2-18.6 1.4-24.3 1.1-3.9 2.6-6.6 5.4-9.3 3.5-3.2 4.6-3.7 8.9-3.7 4.1 0 5.5.5 8.4 3.1zm86.6-3.4c.8.2 2.2.7 3 1 .8.4 1.8.6 2.1.5.9-.2 1.2 44.9.3 48.2-.4 1.9-1.5 2.9-3.5 3.3-5.9 1.1-2.6 1.8 9.1 1.8 6.6 0 12-.3 12-.8 0-.4-1.1-.7-2.5-.7s-2.9-.8-3.5-1.9c-1.1-2.2-1.4-44.8-.4-47.6.4-1 2.1-2.3 3.8-3.1 2.8-1.2 1.9-1.3-9.4-1.3-6.9 0-11.8.3-11 .6zm28 .3c0 .5.6 1 1.3 1 .8 0 2.3 1 3.5 2.3 2.1 2.2 2.2 3.2 2.2 22.8 0 18.6-.2 20.7-2 23.6-1.1 1.9-2.8 3.3-3.9 3.3s-2.3.4-2.6 1c-.4.6 3 .9 9 .7 5.2-.1 9.5-.3 9.5-.5s-1.4-.8-3-1.4c-5.3-1.8-6-4.6-6-25.3 0-10.2.4-18.5.8-18.5.8 0 3 2.8 14.9 19 3.8 5.2 8.4 11.1 10.1 13 1.8 1.9 3.2 3.8 3.2 4.2 0 .5 1.7 3.1 3.8 5.9l3.7 5 .5-24.8c.4-21.8.7-25.2 2.3-27.8 2.2-3.6 5.7-4.3 8-1.7 1.4 1.5 1.7 5.5 1.9 25.9.2 13.3.1 24.1-.2 24.1-.3-.1-1.2.1-2 .5-.8.3-2.2.8-3 1.1-.8.3 7.3.4 18 .3l19.5-.2 4.2-2.9c6.8-4.6 10.4-12.4 10.4-22.8 0-6.5-.7-10.2-2.8-14.6-1.8-3.7-10-11.2-12.3-11.2-.9 0-2.2-.6-2.8-1.3-1-.9-7.9-1.3-26.5-1.4-21-.2-24.6-.1-21.7 1 5.3 1.9 6 4.3 6 21 0 14.5 0 14.7-2 13.5-1.1-.7-2-1.6-2-2.1 0-1.1-10.3-14.7-11.2-14.7-.5 0-.8-.5-.8-1.1 0-1.2-4.2-6.9-8.3-11.4-1.5-1.7-3-3.8-3.3-4.8-.4-1.4-1.8-1.7-8.5-1.7-4.6 0-7.9.4-7.9 1zm79.2 1c9.5 2.7 13.8 11.1 13.8 26.9 0 10.3-1 14.8-4.4 19.4-2.8 3.9-6.6 5.7-11.8 5.7-9.2-.1-10-2.9-9.1-31.2l.6-21.8h3.6c2 0 5.3.5 7.3 1zm-605.2.1c0 .5.4.8.9.5 2.7-1.7 3.1 2.8 2.9 27l-.3 24.9-2.7.3c-1.6.2-2.8.7-2.8 1.1 0 .4 5.2.8 11.5.8s11.5-.3 11.5-.8-.8-.9-1.8-.9c-3.6 0-4.2-2-4.2-14.7V86.1l9.8-.4 9.7-.3-9.7-.2-9.8-.2V74.6c0-11.5.4-13.6 2.9-13.6.9 0 2.3-.5 3.1-1 1-.7-2.1-1-9.7-1-7.3 0-11.3.4-11.3 1.1z"/><path d="M862.3 60.1c1 .6 2.4.8 3.2.5 1.1-.4 1.4 3.9 1.4 24.7 0 13.9-.3 25.8-.7 26.5-.5.7-1.9 1.4-3 1.5-1.2.1-2.2.4-2.2.7 0 .8 21.9.4 22.7-.4.4-.3-.3-.6-1.4-.6-1.1 0-2.5-.6-3.1-1.3-1.1-1.3-2.3-50.8-1.2-50.2.3.1 1.9-.4 3.5-1.1 2.7-1.2 1.8-1.3-9-1.3-8.9 0-11.5.2-10.2 1zm27.5.4 3.2 1.4v24.3c0 13.4-.4 24.8-.8 25.4-.4.7-1.8 1.4-3.2 1.7-1.4.2 7.3.5 19.3.6 11.9 0 21.7-.1 21.7-.3 0-.5 2.7-14 3.5-17.4.3-1.3.2-2.1-.3-1.8-.5.3-1.2 1.8-1.5 3.4-.7 3.7-8.3 12.1-12.4 13.8-4 1.7-12.5 1.8-14.1.2-.8-.8-1.2-5.3-1.2-13.6V85.7l3.6.6c4.8.8 7.3 3.2 8 7.9 1.3 7.6 2.2 4.6 2.3-7.2.1-11.7-1-15.3-2.5-8.8-.4 1.8-.7 3.7-.6 4.1.2.5-.2.6-.7.3-.5-.3-2.2.1-3.7.9-6.2 3.2-6.4 2.8-6.4-11V60h4.1c6.8 0 12.6 1.9 15 5.1 1.2 1.6 2.7 2.6 3.3 2.2.6-.3.8-.3.4.2-.6.6 2.7 8.5 3.6 8.5.2 0-.6-3.8-1.7-8.5l-2.1-8.5h-20.1c-18.1.1-19.7.2-16.7 1.5zm114.8-.1c4.1 1.8 4.4 3.7 4.3 27.5-.1 22.7-.4 24.5-4.2 24.9-1.5.2-2.7.7-2.7 1.1 0 .9 21.8.6 22.7-.3.4-.3-.3-.6-1.4-.6-4.1 0-4.3-1.6-4.1-27.1l.3-24.4 3.5-1.2c3.1-1 2-1.2-9-1.2-11.4 0-12.2.1-9.4 1.3zm25.1-.6c1.3.4 3.2 1.5 4.3 2.5 2 1.7 2.1 2.7 1.9 23.2 0 11.7.2 21.9.6 22.6.6.8.4 1-.4.4-.8-.4-1.9.1-2.8 1.5-.8 1.2-2.5 2.5-3.7 3-1.4.6.8.9 6.9.9 8.4 0 8.8-.1 5.9-1.3-2-.9-3.5-2.5-4.3-4.6-1.3-3.8-1.6-41.4-.3-40.6.5.3 1.4 2.3 2.2 4.5.7 2.3 1.6 4.1 1.9 4.1.4 0 .8 1 .8 2.2.1 1.3.7 2.4 1.3 2.6.5.2.8.7.5 1.2-.5.9 7.5 21.2 8.8 22.1.5.3.7.8.5 1-.6.8 2.6 8.9 3.3 8.2.4-.4 1.9-3.9 3.3-7.8 2.1-5.9 2.3-7.2 1.1-8.5-.7-.8-2.6-4.7-4.1-8.5-1.5-3.9-3-7.2-3.3-7.5-.3-.3-.6-1-.6-1.5 0-.6-1.8-5.4-3.9-10.8l-3.9-9.7-9.1.1c-5 .1-8.1.4-6.9.7zm46.8 2.2c-1.7 3.4-1.9 4.4-.5 3.5 1.2-.8 1.4 43.4.1 45.3-.4.7-2.1 1.7-3.7 2.2-2 .6 1 .8 9.6.8 6.9 0 11.6-.3 10.5-.5-4.5-1.1-4.6-1.3-4.5-28 .1-13.9.5-25.1 1-24.8.4.3 1.9.1 3.2-.4 1.7-.7.2-1-5.9-1-8.1-.1-8.3-.1-9.8 2.9zm23.5-1.2 3.5 1.7.3 23.3c.2 24.1-.2 27.2-3.8 27.2-1 0-2.1.4-2.4.8-.3.5 9.3 1 21.3 1l21.8.2 1.7-10.1c1-5.5 1.5-10.3 1.2-10.6-.3-.4-.6.2-.6 1.1 0 2.4-3.9 9.5-6.7 12.2-1.3 1.1-1.9 2.5-1.5 2.9.4.5.2.5-.4.2-.7-.4-2.5 0-4 .8-3.5 1.8-12.5 2-14.2.3-.8-.8-1.2-5.3-1.2-13.5V86h2.4c3.8 0 8.4 4.5 9.4 9.3.8 3.4 1 1.5 1-9.3 0-11.7-.1-13-1.1-10-1.8 5.5-3.9 7.8-8 8.5l-3.7.7V59.7l5.8.6c8.7.8 12.4 3 16.6 10.1 3.8 6.3 4.2 6.4 2.7.6-.6-1.9-1.5-5.4-2.1-7.8l-1.1-4.2h-20.2c-19.9 0-20.1 0-16.7 1.8zm165.7-1.1c4.9 1 5.3 3 5.3 27.3 0 12.4-.4 23.1-.9 23.8-.4.7-2.1 1.7-3.7 2.2-2 .6.9.8 9.6.8 9.4 0 11.7-.2 9.3-.9-2.1-.6-3.5-1.7-3.8-3.2-.3-1.2-.4-12.8-.3-25.7l.3-23.5 3-.3c9-1.1 16.7 3.4 21.3 12.3 2.6 4.9 2.6 3.2.3-6l-1.7-7-20.5-.1c-11.2-.1-19.4.1-18.2.3z"/><path d="M1293.6 76.4c-.7 3.8-2.7 5.9-7.6 8l-3.5 1.5 3 .2c1.7.1 3.4.1 3.8 0 .5-.1.6.3.3.8-.4.5-.1 1.1.5 1.3.6.2 1.9 2.8 2.9 5.8l1.9 5.5.1-13.3c0-7.2-.2-13.2-.4-13.2s-.7 1.5-1 3.4zm-145.5 16.1c-.7 5.3-.4 21.2.3 20.5 1.4-1.4 4.8-1.2 8.9.5 4.8 2 13.7 2 16.3-.1 1.8-1.5 1.8-1.5-.3-.5-3.9 1.9-11.7 1.3-15.3-1.2-4-2.7-7.6-9.1-8.9-15.4-.5-2.7-.9-4.4-1-3.8z"/></g></svg>